name rise35.5848peak51.9257fall54.8793.mot
datacolumns 19
datarows 18
range 18.10659700000000 18.13492300000000
endheader
time	ground_force1_vx	ground_force1_vy	ground_force1_vz	ground_force1_px	ground_force1_py	ground_force1_pz	ground_force2_vx	ground_force2_vy	ground_force2_vz	ground_force2_px	ground_force2_py	ground_force2_pz	ground_torque1_x	ground_torque1_y	ground_torque1_z	ground_torque2_x	ground_torque2_y	ground_torque2_z	
18.10659700000000	-47.14544900000000	809.83711400000004	54.08604600000000	0.09546800000000	0.00000000000000	0.13320000000000	0.00000000000000	0.00000000000000	0.00000000000000	0.00000000000000	0.00000000000000	0.00000000000000	0.00000000000000	23.30764800000000	0.00000000000000	0.00000000000000	0.00000000000000	0.00000000000000	
18.10827000000000	-47.88619000000000	809.85170600000004	54.11795900000000	0.09442500000000	0.00000000000000	0.13316400000000	0.00000000000000	0.00000000000000	0.00000000000000	0.00000000000000	0.00000000000000	0.00000000000000	0.00000000000000	23.35960400000000	0.00000000000000	0.00000000000000	0.00000000000000	0.00000000000000	
18.10992900000000	-48.63476700000000	809.77608799999996	54.13362100000000	0.09339000000000	0.00000000000000	0.13312500000000	0.00000000000000	0.00000000000000	0.00000000000000	0.00000000000000	0.00000000000000	0.00000000000000	0.00000000000000	23.41117300000000	0.00000000000000	0.00000000000000	0.00000000000000	0.00000000000000	
18.11159600000000	-49.39138100000000	809.60588700000005	54.13226400000000	0.09236000000000	0.00000000000000	0.13308200000000	0.00000000000000	0.00000000000000	0.00000000000000	0.00000000000000	0.00000000000000	0.00000000000000	0.00000000000000	23.46241300000000	0.00000000000000	0.00000000000000	0.00000000000000	0.00000000000000	
18.11325800000000	-50.15619200000000	809.33664499999998	54.11313500000000	0.09133800000000	0.00000000000000	0.13303500000000	0.00000000000000	0.00000000000000	0.00000000000000	0.00000000000000	0.00000000000000	0.00000000000000	0.00000000000000	23.51337500000000	0.00000000000000	0.00000000000000	0.00000000000000	0.00000000000000	
18.11492900000000	-50.92931200000000	808.96382400000005	54.07549300000000	0.09032200000000	0.00000000000000	0.13298400000000	0.00000000000000	0.00000000000000	0.00000000000000	0.00000000000000	0.00000000000000	0.00000000000000	0.00000000000000	23.56410400000000	0.00000000000000	0.00000000000000	0.00000000000000	0.00000000000000	
18.11659400000000	-51.71080000000000	808.48281899999995	54.01862000000000	0.08931200000000	0.00000000000000	0.13292900000000	0.00000000000000	0.00000000000000	0.00000000000000	0.00000000000000	0.00000000000000	0.00000000000000	0.00000000000000	23.61463700000000	0.00000000000000	0.00000000000000	0.00000000000000	0.00000000000000	
18.11826100000000	-52.50066300000000	807.88895600000001	53.94181400000000	0.08830900000000	0.00000000000000	0.13287000000000	0.00000000000000	0.00000000000000	0.00000000000000	0.00000000000000	0.00000000000000	0.00000000000000	0.00000000000000	23.66500100000000	0.00000000000000	0.00000000000000	0.00000000000000	0.00000000000000	
18.11993100000000	-53.29884700000000	807.17750799999999	53.84440000000000	0.08731300000000	0.00000000000000	0.13280800000000	0.00000000000000	0.00000000000000	0.00000000000000	0.00000000000000	0.00000000000000	0.00000000000000	0.00000000000000	23.71521500000000	0.00000000000000	0.00000000000000	0.00000000000000	0.00000000000000	
18.12160700000000	-54.10523500000000	806.34369500000003	53.72572700000000	0.08632300000000	0.00000000000000	0.13274100000000	0.00000000000000	0.00000000000000	0.00000000000000	0.00000000000000	0.00000000000000	0.00000000000000	0.00000000000000	23.76528600000000	0.00000000000000	0.00000000000000	0.00000000000000	0.00000000000000	
18.12326100000000	-54.91964400000000	805.38270000000000	53.58517300000000	0.08534000000000	0.00000000000000	0.13267100000000	-1.46202200000000	3.71581700000000	0.86876900000000	0.00000000000000	0.00000000000000	0.00000000000000	0.00000000000000	23.81521200000000	0.00000000000000	0.00000000000000	0.21994000000000	0.00000000000000	
18.12492700000000	-55.74182000000000	804.28967100000000	53.42214800000000	0.08436200000000	0.00000000000000	0.13259700000000	-2.36848900000000	7.18641600000000	1.52664000000000	0.00000000000000	0.00000000000000	0.00000000000000	0.00000000000000	23.86497500000000	0.00000000000000	0.00000000000000	0.39866100000000	0.00000000000000	
18.12659500000000	-56.57143700000000	803.05973700000004	53.23609400000000	0.08339100000000	0.00000000000000	0.13251900000000	-3.39957700000000	11.38423000000000	2.29959800000000	0.00000000000000	0.00000000000000	0.00000000000000	0.00000000000000	23.91454600000000	0.00000000000000	0.00000000000000	0.61071400000000	0.00000000000000	
18.12826200000000	-57.40809100000000	801.68801299999996	53.02649100000000	0.08242600000000	0.00000000000000	0.13243700000000	-4.52564400000000	16.26621400000000	3.17279900000000	0.00000000000000	0.00000000000000	0.00000000000000	0.00000000000000	23.96388200000000	0.00000000000000	0.00000000000000	0.85262600000000	0.00000000000000	
18.12992600000000	-58.25129900000000	800.16961500000002	52.79285400000000	0.08146800000000	0.00000000000000	0.13235100000000	-5.70914700000000	21.75752100000000	4.12537400000000	0.00000000000000	0.00000000000000	0.00000000000000	0.00000000000000	24.01292400000000	0.00000000000000	0.00000000000000	1.11926600000000	0.00000000000000	
18.13161200000000	-59.10049700000000	798.49966700000004	52.53474400000000	0.08051500000000	0.00000000000000	0.13226100000000	-6.90709200000000	27.75720300000000	5.13182900000000	0.30706600000000	0.00000000000000	-0.04171200000000	0.00000000000000	24.06159800000000	0.00000000000000	0.00000000000000	2.69189200000000	0.00000000000000	
18.13325800000000	-59.95503500000000	796.67331700000000	52.25176000000000	0.07956800000000	0.00000000000000	0.13216800000000	-8.07414400000000	34.14676100000000	6.16396000000000	0.31101300000000	0.00000000000000	-0.04184100000000	0.00000000000000	24.10981400000000	0.00000000000000	0.00000000000000	3.27938200000000	0.00000000000000	
18.13492300000000	-60.81417800000000	794.68574400000000	51.94354900000000	0.07862700000000	0.00000000000000	0.13207100000000	-9.16602800000000	40.80040000000000	7.19303800000000	0.31456100000000	0.00000000000000	-0.04197000000000	0.00000000000000	24.15746600000000	0.00000000000000	0.00000000000000	3.87755300000000	0.00000000000000	
